<mxfile host="app.diagrams.net" modified="2023-08-28T14:51:04.440Z" agent="Mozilla/5.0 (Windows NT 10.0; Win64; x64) AppleWebKit/537.36 (KHTML, like Gecko) Chrome/116.0.0.0 Safari/537.36" version="21.6.9" etag="gkObKvepLu6piz5WnXmG" type="github">
  <diagram name="Страница — 1" id="x8Qyi_w7TCBruPxLDN-I">
    <mxGraphModel>
      <root>
        <mxCell id="0" />
        <mxCell id="1" parent="0" />
      </root>
    </mxGraphModel>
  </diagram>
</mxfile>
